<svg width="25" height="22" viewBox="0 0 25 22" fill="none" xmlns="http://www.w3.org/2000/svg">
<path d="M4.5212 11.4025C4.55187 11.8642 5.0082 12.2169 5.54044 12.1903C6.07268 12.1637 6.47929 11.7679 6.44862 11.3062C6.41796 10.8445 5.96163 10.4918 5.42939 10.5184C4.89714 10.545 4.49054 10.9408 4.5212 11.4025Z" fill="white"/>
<path d="M10.3035 11.1135C10.2316 10.0316 9.67893 9.01592 8.76159 8.28018C8.57335 8.12943 8.32379 8.04971 8.06779 8.05858C7.8118 8.06744 7.57034 8.16415 7.39655 8.32744C7.22276 8.49072 7.13087 8.70721 7.14108 8.92927C7.1513 9.15132 7.26279 9.36077 7.45103 9.51152C7.98371 9.96121 8.30287 10.5677 8.34563 11.2114C8.38839 11.8551 8.15163 12.4893 7.68203 12.9891C7.515 13.1576 7.43197 13.3768 7.45123 13.5984C7.47048 13.82 7.59043 14.0259 7.78469 14.1708C7.97895 14.3157 8.23161 14.3877 8.48709 14.371C8.74256 14.3543 8.97992 14.2502 9.14696 14.0817C9.96081 13.2594 10.3754 12.1955 10.3035 11.1135V11.1135ZM15.122 10.8727C15.0542 9.86306 14.7528 8.87561 14.2358 7.96916C13.7187 7.0627 12.9967 6.25579 12.1126 5.5965C12.0145 5.52485 11.9011 5.47067 11.7788 5.43703C11.6566 5.4034 11.5279 5.39098 11.4002 5.40048C11.2724 5.40998 11.1481 5.44122 11.0342 5.49241C10.9204 5.5436 10.8193 5.61373 10.7367 5.69882C10.5699 5.87065 10.4886 6.09293 10.5107 6.31675C10.5216 6.42758 10.5577 6.53545 10.6167 6.6342C10.6757 6.73296 10.7565 6.82066 10.8546 6.89231C11.5438 7.40555 12.1066 8.03403 12.5094 8.74021C12.9122 9.44639 13.1467 10.2158 13.1989 11.0023C13.2512 11.7889 13.1201 12.5766 12.8134 13.3182C12.5068 14.0598 12.031 14.7402 11.4143 15.3187C11.3284 15.4007 11.2621 15.4967 11.2193 15.601C11.1764 15.7054 11.1578 15.8161 11.1647 15.9267C11.1762 16.0901 11.2427 16.2469 11.3559 16.3778C11.4691 16.5087 11.624 16.608 11.8015 16.6633C11.979 16.7187 12.1714 16.7277 12.3547 16.6893C12.5381 16.6509 12.7045 16.5668 12.8333 16.4472C13.6287 15.7001 14.2415 14.821 14.6348 13.863C15.0282 12.9049 15.1939 11.8877 15.122 10.8727Z" fill="white"/>
<path d="M16.6929 18.9467C18.9741 16.6439 20.1363 13.6633 19.935 10.6321C19.7336 7.60103 18.1844 4.7559 15.6134 2.69567C15.4232 2.56363 15.1825 2.49886 14.9395 2.51436C14.6966 2.52986 14.4693 2.62447 14.3034 2.77923C14.1375 2.93398 14.0452 3.13742 14.045 3.34875C14.0448 3.56008 14.1367 3.76366 14.3023 3.91865C16.511 5.68501 17.8422 8.12657 18.015 10.7281C18.1878 13.3297 17.1887 15.8877 15.2285 17.8624C15.0666 18.026 14.9837 18.2374 14.997 18.4527C15.005 18.5653 15.0391 18.6753 15.0973 18.7762C15.1555 18.877 15.2366 18.9667 15.3357 19.0397C15.5302 19.1829 15.7821 19.2535 16.0364 19.236C16.2908 19.2186 16.5268 19.1146 16.6929 18.9467V18.9467Z" fill="white"/>
</svg>
