<svg width="100" height="30" viewBox="0 0 100 30" fill="none" xmlns="http://www.w3.org/2000/svg">
<path d="M10.1441 1.30941L8.00336 5.2113M2.77852 4.33285L2.01158 0.475098M10.7794 9.96525L14.8375 8.94895M0.418762 6.71273C2.07684 6.33462 5.04838 6.35055 7.24391 8.33044C9.43943 10.3103 11.4102 16.8489 8.13204 21.1372C8.13204 21.1372 6.58939 23.2814 4.46824 24.0611C2.8986 24.8044 2.8986 26.4002 2.8986 26.4002V28.9343H1.00289M0.804426 6.32287L0.997258 24.8408M2.73275 8.27213C5.81806 8.46705 7.16788 10.5463 7.16788 12.1706" stroke="white"/>
<path d="M29.6552 10.7329V12.3149H27.0512V20.5049H25.0912V12.3149H22.4872V10.7329H29.6552ZM34.5292 20.6309C33.7826 20.6309 33.1106 20.4675 32.5132 20.1409C31.9159 19.8049 31.4446 19.3335 31.0992 18.7269C30.7632 18.1202 30.5952 17.4202 30.5952 16.6269C30.5952 15.8335 30.7679 15.1335 31.1132 14.5269C31.4679 13.9202 31.9486 13.4535 32.5552 13.1269C33.1619 12.7909 33.8386 12.6229 34.5852 12.6229C35.3319 12.6229 36.0086 12.7909 36.6152 13.1269C37.2219 13.4535 37.6979 13.9202 38.0432 14.5269C38.3979 15.1335 38.5752 15.8335 38.5752 16.6269C38.5752 17.4202 38.3932 18.1202 38.0292 18.7269C37.6746 19.3335 37.1892 19.8049 36.5732 20.1409C35.9666 20.4675 35.2852 20.6309 34.5292 20.6309ZM34.5292 18.9229C34.8839 18.9229 35.2152 18.8389 35.5232 18.6709C35.8406 18.4935 36.0926 18.2322 36.2792 17.8869C36.4659 17.5415 36.5592 17.1215 36.5592 16.6269C36.5592 15.8895 36.3632 15.3249 35.9712 14.9329C35.5886 14.5315 35.1172 14.3309 34.5572 14.3309C33.9972 14.3309 33.5259 14.5315 33.1432 14.9329C32.7699 15.3249 32.5832 15.8895 32.5832 16.6269C32.5832 17.3642 32.7652 17.9335 33.1292 18.3349C33.5026 18.7269 33.9692 18.9229 34.5292 18.9229ZM43.429 10.7329C44.4556 10.7329 45.3563 10.9335 46.131 11.3349C46.915 11.7362 47.517 12.3102 47.937 13.0569C48.3663 13.7942 48.581 14.6529 48.581 15.6329C48.581 16.6129 48.3663 17.4715 47.937 18.2089C47.517 18.9369 46.915 19.5015 46.131 19.9029C45.3563 20.3042 44.4556 20.5049 43.429 20.5049H40.013V10.7329H43.429ZM43.359 18.8389C44.3856 18.8389 45.179 18.5589 45.739 17.9989C46.299 17.4389 46.579 16.6502 46.579 15.6329C46.579 14.6155 46.299 13.8222 45.739 13.2529C45.179 12.6742 44.3856 12.3849 43.359 12.3849H41.973V18.8389H43.359ZM53.4921 20.6309C52.7455 20.6309 52.0735 20.4675 51.4761 20.1409C50.8788 19.8049 50.4075 19.3335 50.0621 18.7269C49.7261 18.1202 49.5581 17.4202 49.5581 16.6269C49.5581 15.8335 49.7308 15.1335 50.0761 14.5269C50.4308 13.9202 50.9115 13.4535 51.5181 13.1269C52.1248 12.7909 52.8015 12.6229 53.5481 12.6229C54.2948 12.6229 54.9715 12.7909 55.5781 13.1269C56.1848 13.4535 56.6608 13.9202 57.0061 14.5269C57.3608 15.1335 57.5381 15.8335 57.5381 16.6269C57.5381 17.4202 57.3561 18.1202 56.9921 18.7269C56.6375 19.3335 56.1521 19.8049 55.5361 20.1409C54.9295 20.4675 54.2481 20.6309 53.4921 20.6309ZM53.4921 18.9229C53.8468 18.9229 54.1781 18.8389 54.4861 18.6709C54.8035 18.4935 55.0555 18.2322 55.2421 17.8869C55.4288 17.5415 55.5221 17.1215 55.5221 16.6269C55.5221 15.8895 55.3261 15.3249 54.9341 14.9329C54.5515 14.5315 54.0801 14.3309 53.5201 14.3309C52.9601 14.3309 52.4888 14.5315 52.1061 14.9329C51.7328 15.3249 51.5461 15.8895 51.5461 16.6269C51.5461 17.3642 51.7281 17.9335 52.0921 18.3349C52.4655 18.7269 52.9321 18.9229 53.4921 18.9229ZM67.8558 15.4929C68.4065 15.5955 68.8591 15.8709 69.2138 16.3189C69.5685 16.7669 69.7458 17.2802 69.7458 17.8589C69.7458 18.3815 69.6151 18.8435 69.3538 19.2449C69.1018 19.6369 68.7331 19.9449 68.2478 20.1689C67.7625 20.3929 67.1885 20.5049 66.5258 20.5049H62.3118V10.7329H66.3438C67.0065 10.7329 67.5758 10.8402 68.0518 11.0549C68.5371 11.2695 68.9011 11.5682 69.1438 11.9509C69.3958 12.3335 69.5218 12.7675 69.5218 13.2529C69.5218 13.8222 69.3678 14.2982 69.0598 14.6809C68.7611 15.0635 68.3598 15.3342 67.8558 15.4929ZM64.2718 14.7649H66.0638C66.5305 14.7649 66.8898 14.6622 67.1418 14.4569C67.3938 14.2422 67.5198 13.9389 67.5198 13.5469C67.5198 13.1549 67.3938 12.8515 67.1418 12.6369C66.8898 12.4222 66.5305 12.3149 66.0638 12.3149H64.2718V14.7649ZM66.2458 18.9089C66.7218 18.9089 67.0905 18.7969 67.3518 18.5729C67.6225 18.3489 67.7578 18.0315 67.7578 17.6209C67.7578 17.2009 67.6178 16.8742 67.3378 16.6409C67.0578 16.3982 66.6798 16.2769 66.2038 16.2769H64.2718V18.9089H66.2458ZM70.8039 16.5989C70.8039 15.8149 70.9579 15.1195 71.2659 14.5129C71.5832 13.9062 72.0079 13.4395 72.5399 13.1129C73.0812 12.7862 73.6832 12.6229 74.3459 12.6229C74.9246 12.6229 75.4286 12.7395 75.8579 12.9729C76.2966 13.2062 76.6466 13.5002 76.9079 13.8549V12.7489H78.8819V20.5049H76.9079V19.3709C76.6559 19.7349 76.3059 20.0382 75.8579 20.2809C75.4192 20.5142 74.9106 20.6309 74.3319 20.6309C73.6786 20.6309 73.0812 20.4629 72.5399 20.1269C72.0079 19.7909 71.5832 19.3195 71.2659 18.7129C70.9579 18.0969 70.8039 17.3922 70.8039 16.5989ZM76.9079 16.6269C76.9079 16.1509 76.8146 15.7449 76.6279 15.4089C76.4412 15.0635 76.1892 14.8022 75.8719 14.6249C75.5546 14.4382 75.2139 14.3449 74.8499 14.3449C74.4859 14.3449 74.1499 14.4335 73.8419 14.6109C73.5339 14.7882 73.2819 15.0495 73.0859 15.3949C72.8992 15.7309 72.8059 16.1322 72.8059 16.5989C72.8059 17.0655 72.8992 17.4762 73.0859 17.8309C73.2819 18.1762 73.5339 18.4422 73.8419 18.6289C74.1592 18.8155 74.4952 18.9089 74.8499 18.9089C75.2139 18.9089 75.5546 18.8202 75.8719 18.6429C76.1892 18.4562 76.4412 18.1949 76.6279 17.8589C76.8146 17.5135 76.9079 17.1029 76.9079 16.6269ZM85.0942 12.6369C86.0182 12.6369 86.7648 12.9309 87.3342 13.5189C87.9035 14.0975 88.1882 14.9095 88.1882 15.9549V20.5049H86.2282V16.2209C86.2282 15.6049 86.0742 15.1335 85.7662 14.8069C85.4582 14.4709 85.0382 14.3029 84.5062 14.3029C83.9648 14.3029 83.5355 14.4709 83.2182 14.8069C82.9102 15.1335 82.7562 15.6049 82.7562 16.2209V20.5049H80.7962V12.7489H82.7562V13.7149C83.0175 13.3789 83.3488 13.1175 83.7502 12.9309C84.1608 12.7349 84.6088 12.6369 85.0942 12.6369ZM94.644 20.5049L92.012 17.2009V20.5049H90.052V10.1449H92.012V16.0389L94.616 12.7489H97.164L93.748 16.6409L97.192 20.5049H94.644Z" fill="white"/>
</svg>
