<svg width="31" height="31" viewBox="0 0 31 31" fill="none" xmlns="http://www.w3.org/2000/svg">
<circle cx="15.2057" cy="15.2057" r="15.2057" fill="white"/>
<path d="M27.9331 15.342C27.9331 14.2748 27.8463 13.496 27.6583 12.6884H15.4365V17.5054H22.6105C22.4659 18.7025 21.6848 20.5053 19.9492 21.7167L19.9248 21.8779L23.7891 24.863L24.0569 24.8897C26.5156 22.6253 27.9331 19.2937 27.9331 15.342Z" fill="#4285F4"/>
<path d="M15.4365 28.0337C18.9511 28.0337 21.9017 26.8799 24.0569 24.8896L19.9491 21.7166C18.8499 22.481 17.3746 23.0146 15.4365 23.0146C11.9941 23.0146 9.07249 20.7504 8.031 17.6207L7.87834 17.6337L3.86017 20.7345L3.80762 20.8801C5.94823 25.1203 10.3452 28.0337 15.4365 28.0337Z" fill="#34A853"/>
<path d="M8.03104 17.6207C7.75624 16.8131 7.5972 15.9477 7.5972 15.0535C7.5972 14.1593 7.75624 13.294 8.01658 12.4863L8.0093 12.3143L3.94078 9.1637L3.80767 9.22683C2.92542 10.9864 2.41919 12.9623 2.41919 15.0535C2.41919 17.1448 2.92542 19.1206 3.80767 20.8801L8.03104 17.6207Z" fill="#FBBC05"/>
<path d="M15.4364 7.09243C17.8808 7.09243 19.5296 8.14526 20.4698 9.02508L24.1435 5.44832C21.8873 3.35708 18.9511 2.07349 15.4364 2.07349C10.3452 2.07349 5.94822 4.98678 3.80762 9.22692L8.01653 12.4864C9.07247 9.35677 11.9941 7.09243 15.4364 7.09243Z" fill="#EB4335"/>
</svg>
