<svg width="37" height="42" viewBox="0 0 37 42" fill="none" xmlns="http://www.w3.org/2000/svg">
<g clip-path="url(#clip0_533_177)">
<path d="M18.5081 11.5664C13.2554 11.5664 9.0186 15.7746 9.0186 20.9917C9.0186 26.2089 13.2554 30.4171 18.5081 30.4171C23.7608 30.4171 27.9976 26.2089 27.9976 20.9917C27.9976 15.7746 23.7608 11.5664 18.5081 11.5664ZM18.5081 27.1195C15.1137 27.1195 12.3387 24.3714 12.3387 20.9917C12.3387 17.6121 15.1054 14.864 18.5081 14.864C21.9108 14.864 24.6775 17.6121 24.6775 20.9917C24.6775 24.3714 21.9025 27.1195 18.5081 27.1195ZM30.5992 11.1808C30.5992 12.4031 29.6081 13.3792 28.3858 13.3792C27.1552 13.3792 26.1724 12.3949 26.1724 11.1808C26.1724 9.96675 27.1635 8.98237 28.3858 8.98237C29.6081 8.98237 30.5992 9.96675 30.5992 11.1808ZM36.8842 13.4121C36.7438 10.4671 36.0666 7.85854 33.8945 5.70933C31.7307 3.56011 29.1043 2.88745 26.1394 2.73979C23.0836 2.56753 13.9244 2.56753 10.8686 2.73979C7.9119 2.87925 5.28556 3.5519 3.11346 5.70112C0.941365 7.85034 0.272391 10.4589 0.12373 13.4039C-0.049707 16.439 -0.049707 25.5363 0.12373 28.5714C0.264132 31.5164 0.941365 34.1249 3.11346 36.2742C5.28556 38.4234 7.90364 39.096 10.8686 39.2437C13.9244 39.416 23.0836 39.416 26.1394 39.2437C29.1043 39.1042 31.7307 38.4316 33.8945 36.2742C36.0583 34.1249 36.7356 31.5164 36.8842 28.5714C37.0577 25.5363 37.0577 16.4472 36.8842 13.4121ZM32.9365 31.8281C32.2923 33.4359 31.0452 34.6746 29.4182 35.3226C26.9818 36.2824 21.2005 36.0609 18.5081 36.0609C15.8157 36.0609 10.0262 36.2742 7.59806 35.3226C5.97931 34.6828 4.73221 33.4441 4.07976 31.8281C3.11346 29.4082 3.33645 23.666 3.33645 20.9917C3.33645 18.3175 3.12172 12.5671 4.07976 10.1554C4.72395 8.54761 5.97105 7.30893 7.59806 6.66089C10.0344 5.70112 15.8157 5.92261 18.5081 5.92261C21.2005 5.92261 26.99 5.70933 29.4182 6.66089C31.0369 7.30073 32.284 8.5394 32.9365 10.1554C33.9028 12.5753 33.6798 18.3175 33.6798 20.9917C33.6798 23.666 33.9028 29.4164 32.9365 31.8281Z" fill="white"/>
</g>
<defs>
<clipPath id="clip0_533_177">
<rect width="37" height="42" fill="white"/>
</clipPath>
</defs>
</svg>
