<svg width="40" height="45" viewBox="0 0 40 45" fill="none" xmlns="http://www.w3.org/2000/svg">
<path d="M37.1429 2.8125H2.84821C1.27679 2.8125 0 4.08691 0 5.65137V39.3486C0 40.9131 1.27679 42.1875 2.84821 42.1875H37.1429C38.7143 42.1875 40 40.9131 40 39.3486V5.65137C40 4.08691 38.7143 2.8125 37.1429 2.8125ZM12.0893 36.5625H6.16071V17.7715H12.0982V36.5625H12.0893ZM9.125 15.2051C7.22321 15.2051 5.6875 13.6846 5.6875 11.8213C5.6875 9.95801 7.22321 8.4375 9.125 8.4375C11.0179 8.4375 12.5625 9.95801 12.5625 11.8213C12.5625 13.6934 11.0268 15.2051 9.125 15.2051ZM34.3125 36.5625H28.3839V27.4219C28.3839 25.2422 28.3393 22.4385 25.3036 22.4385C22.2143 22.4385 21.7411 24.8115 21.7411 27.2637V36.5625H15.8125V17.7715H21.5V20.3379H21.5804C22.375 18.8613 24.3125 17.3057 27.1964 17.3057C33.1964 17.3057 34.3125 21.1992 34.3125 26.2617V36.5625Z" fill="white"/>
</svg>
