<svg width="26" height="26" viewBox="0 0 26 26" fill="none" xmlns="http://www.w3.org/2000/svg">
<g clip-path="url(#clip0_533_184)">
<path d="M8.37383 1.24914C7.98281 0.304612 6.95195 -0.198123 5.9668 0.0710181L1.49805 1.28977C0.614453 1.53352 0 2.33586 0 3.24992C0 15.8132 10.1867 25.9999 22.75 25.9999C23.6641 25.9999 24.4664 25.3855 24.7102 24.5019L25.9289 20.0331C26.198 19.048 25.6953 18.0171 24.7508 17.6261L19.8758 15.5948C19.048 15.2495 18.0883 15.4882 17.5246 16.1839L15.473 18.6874C11.898 16.9964 9.00352 14.1019 7.3125 10.5269L9.81602 8.48039C10.5117 7.91164 10.7504 6.95696 10.4051 6.12922L8.37383 1.25422V1.24914Z" fill="white"/>
</g>
<defs>
<clipPath id="clip0_533_184">
<rect width="26" height="26" fill="white"/>
</clipPath>
</defs>
</svg>
