<svg width="150" height="100" viewBox="0 0 173 102" fill="none" xmlns="http://www.w3.org/2000/svg">
<path d="M11.84 83V29H1.52V23H28.12V29H17.84V83H11.84ZM46.2069 83.96C43.4869 83.96 41.1002 83.3733 39.0469 82.2C36.9935 81.0267 35.3802 79.3867 34.2069 77.28C33.0335 75.1467 32.4469 72.6667 32.4469 69.84V52.68C32.4469 49.9067 33.0335 47.4667 34.2069 45.36C35.3802 43.2267 36.9935 41.5733 39.0469 40.4C41.1002 39.2 43.4869 38.6 46.2069 38.6C50.2869 38.6 53.5802 39.8933 56.0869 42.48C58.5935 45.0667 59.8469 48.4667 59.8469 52.68V69.84C59.8469 74.0533 58.5935 77.4667 56.0869 80.08C53.5802 82.6667 50.2869 83.96 46.2069 83.96ZM46.2069 78.16C48.6335 78.16 50.5402 77.4133 51.9269 75.92C53.3402 74.4267 54.0469 72.4667 54.0469 70.04V52.48C54.0469 50.0533 53.3402 48.1067 51.9269 46.64C50.5402 45.1467 48.6335 44.4 46.2069 44.4C43.7802 44.4 41.8469 45.1467 40.4069 46.64C38.9669 48.1067 38.2469 50.0533 38.2469 52.48V70.04C38.2469 72.4667 38.9669 74.4267 40.4069 75.92C41.8469 77.4133 43.7802 78.16 46.2069 78.16ZM116.676 83.96C113.956 83.96 111.569 83.3733 109.516 82.2C107.462 81.0267 105.849 79.3867 104.676 77.28C103.502 75.1467 102.916 72.6667 102.916 69.84V52.68C102.916 49.9067 103.502 47.4667 104.676 45.36C105.849 43.2267 107.462 41.5733 109.516 40.4C111.569 39.2 113.956 38.6 116.676 38.6C120.756 38.6 124.049 39.8933 126.556 42.48C129.062 45.0667 130.316 48.4667 130.316 52.68V69.84C130.316 74.0533 129.062 77.4667 126.556 80.08C124.049 82.6667 120.756 83.96 116.676 83.96ZM116.676 78.16C119.102 78.16 121.009 77.4133 122.396 75.92C123.809 74.4267 124.516 72.4667 124.516 70.04V52.48C124.516 50.0533 123.809 48.1067 122.396 46.64C121.009 45.1467 119.102 44.4 116.676 44.4C114.249 44.4 112.316 45.1467 110.876 46.64C109.436 48.1067 108.716 50.0533 108.716 52.48V70.04C108.716 72.4667 109.436 74.4267 110.876 75.92C112.316 77.4133 114.249 78.16 116.676 78.16Z" fill="#F23232"/>
<path d="M98.7245 3.87298L91.3011 17.3093M73.1829 14.2843L70.5234 1M100.928 33.6796L115 30.18M65 22.4795C70.7497 21.1775 81.0541 21.2323 88.6676 28.0501C96.281 34.8679 103.115 57.3836 91.7474 72.1507C91.7474 72.1507 86.3979 79.5342 79.0424 82.2192C73.5993 84.7788 73.5993 90.274 73.5993 90.274V99H67.0256M66.3374 21.137L67.0061 84.9041M73.0242 27.8493C83.7231 28.5205 88.4039 35.6804 88.4039 41.274" stroke="#F23232" stroke-width="4"/>
<path d="M91.5 102V90H101.508C102.258 90 102.862 90.0625 103.32 90.1875C103.779 90.3073 104.13 90.487 104.375 90.7266C104.625 90.9609 104.792 91.2552 104.875 91.6094C104.958 91.9635 105 92.3698 105 92.8281C105 93.1615 104.971 93.4557 104.914 93.7109C104.857 93.9661 104.781 94.1875 104.688 94.375C104.594 94.5625 104.487 94.7214 104.367 94.8516C104.247 94.9766 104.125 95.0807 104 95.1641C103.708 95.362 103.375 95.474 103 95.5C103.469 95.526 103.885 95.6406 104.25 95.8438C104.406 95.9323 104.557 96.0443 104.703 96.1797C104.854 96.3099 104.987 96.474 105.102 96.6719C105.221 96.8646 105.318 97.0938 105.391 97.3594C105.464 97.6198 105.5 97.9219 105.5 98.2656C105.5 98.6823 105.479 99.0651 105.438 99.4141C105.401 99.7578 105.323 100.068 105.203 100.344C105.083 100.62 104.911 100.862 104.688 101.07C104.464 101.279 104.164 101.453 103.789 101.594C103.419 101.729 102.964 101.831 102.422 101.898C101.885 101.966 101.242 102 100.492 102H91.5ZM99.9922 100.75C100.576 100.75 101.081 100.742 101.508 100.727C101.935 100.706 102.297 100.667 102.594 100.609C102.891 100.547 103.13 100.461 103.312 100.352C103.495 100.237 103.635 100.089 103.734 99.9062C103.839 99.7188 103.909 99.4922 103.945 99.2266C103.982 98.9609 104 98.6406 104 98.2656C104 97.974 103.982 97.7214 103.945 97.5078C103.909 97.2891 103.839 97.1068 103.734 96.9609C103.635 96.8099 103.495 96.6901 103.312 96.6016C103.13 96.5078 102.891 96.4349 102.594 96.3828C102.297 96.3307 101.935 96.2969 101.508 96.2812C101.081 96.2604 100.576 96.25 99.9922 96.25H93V100.75H99.9922ZM99.9922 95C100.503 95 100.943 94.9896 101.312 94.9688C101.682 94.9479 101.997 94.9089 102.258 94.8516C102.518 94.7943 102.729 94.7161 102.891 94.6172C103.052 94.513 103.177 94.3802 103.266 94.2188C103.359 94.0573 103.422 93.8646 103.453 93.6406C103.484 93.4115 103.5 93.1406 103.5 92.8281C103.5 92.4948 103.464 92.224 103.391 92.0156C103.318 91.8073 103.188 91.6484 103 91.5391C102.812 91.4245 102.557 91.349 102.234 91.3125C101.917 91.2708 101.508 91.25 101.008 91.25H93V95H99.9922ZM119.75 99.25H110.25L108.75 102H107L114 90H116L123 102H121.25L119.75 99.25ZM119 98L115 91L111 98H119ZM126.5 102H125V90H127.633L138.633 100.5V90H140.133V102H138.133L126.5 91.25V102ZM154.391 90H156.641L148.141 95.875L156.891 102H154.641L146.641 96.5H144.641V102H143.141V90H144.641V95.25H146.641L154.391 90Z" fill="black"/>
</svg>
