<svg width="247" height="135" viewBox="0 0 247 135" fill="none" xmlns="http://www.w3.org/2000/svg">
<path d="M0 10C0 4.47716 4.47715 0 10 0H237C242.523 0 247 4.47715 247 10V124.898C247 130.421 242.523 134.898 237 134.898H10C4.47716 134.898 0 130.421 0 124.898V10Z" fill="url(#paint0_linear_422_2)"/>
<path d="M216.521 65.4025C216.552 65.8642 217.008 66.2169 217.54 66.1903C218.073 66.1637 218.479 65.7679 218.449 65.3062C218.418 64.8445 217.962 64.4918 217.429 64.5184C216.897 64.545 216.491 64.9408 216.521 65.4025Z" fill="white"/>
<path d="M222.304 65.1136C222.232 64.0316 221.679 63.016 220.762 62.2802C220.573 62.1295 220.324 62.0498 220.068 62.0586C219.812 62.0675 219.57 62.1642 219.397 62.3275C219.223 62.4908 219.131 62.7073 219.141 62.9293C219.151 63.1514 219.263 63.3608 219.451 63.5116C219.984 63.9613 220.303 64.5677 220.346 65.2114C220.388 65.8551 220.152 66.4894 219.682 66.9892C219.515 67.1577 219.432 67.3768 219.451 67.5984C219.471 67.82 219.591 68.0259 219.785 68.1708C219.979 68.3157 220.232 68.3877 220.487 68.371C220.743 68.3543 220.98 68.2503 221.147 68.0818C221.961 67.2595 222.375 66.1955 222.304 65.1136V65.1136ZM227.122 64.8727C227.054 63.8631 226.753 62.8757 226.236 61.9692C225.719 61.0628 224.997 60.2559 224.113 59.5966C224.015 59.5249 223.901 59.4707 223.779 59.4371C223.657 59.4035 223.528 59.391 223.4 59.4005C223.273 59.41 223.148 59.4413 223.034 59.4925C222.92 59.5437 222.819 59.6138 222.737 59.6989C222.57 59.8707 222.489 60.093 222.511 60.3168C222.522 60.4276 222.558 60.5355 222.617 60.6343C222.676 60.733 222.757 60.8207 222.855 60.8924C223.544 61.4056 224.107 62.0341 224.509 62.7403C224.912 63.4465 225.147 64.2158 225.199 65.0024C225.251 65.789 225.12 66.5766 224.814 67.3183C224.507 68.0599 224.031 68.7403 223.414 69.3188C223.329 69.4008 223.262 69.4967 223.219 69.6011C223.176 69.7055 223.158 69.8162 223.165 69.9268C223.176 70.0901 223.243 70.2469 223.356 70.3778C223.469 70.5087 223.624 70.608 223.802 70.6634C223.979 70.7188 224.171 70.7278 224.355 70.6894C224.538 70.651 224.705 70.5668 224.833 70.4473C225.629 69.7001 226.242 68.8211 226.635 67.863C227.028 66.905 227.194 65.8878 227.122 64.8727Z" fill="white"/>
<path d="M228.693 72.9466C230.974 70.6439 232.136 67.6632 231.935 64.6321C231.734 61.601 230.185 58.7559 227.614 56.6956C227.423 56.5636 227.183 56.4988 226.94 56.5143C226.697 56.5298 226.469 56.6244 226.304 56.7792C226.138 56.9339 226.045 57.1374 226.045 57.3487C226.045 57.56 226.137 57.7636 226.302 57.9186C228.511 59.685 229.842 62.1265 230.015 64.7281C230.188 67.3296 229.189 69.8877 227.229 71.8624C227.067 72.0259 226.984 72.2374 226.997 72.4527C227.005 72.5653 227.039 72.6753 227.097 72.7761C227.156 72.877 227.237 72.9666 227.336 73.0396C227.53 73.1828 227.782 73.2534 228.037 73.236C228.291 73.2186 228.527 73.1145 228.693 72.9466V72.9466Z" fill="white"/>
<defs>
<linearGradient id="paint0_linear_422_2" x1="1.13035" y1="1.21826" x2="225.331" y2="159.938" gradientUnits="userSpaceOnUse">
<stop stop-color="#7B7C24" stop-opacity="0"/>
<stop offset="0.00152023" stop-color="#FD0E0E"/>
<stop offset="0.876984" stop-color="#703C6D"/>
</linearGradient>
</defs>
</svg>
