<svg width="100" height="30" viewBox="0 0 100 30" fill="none" xmlns="http://www.w3.org/2000/svg">
<path d="M10.144 1.30941L8.0033 5.2113M2.77846 4.33285L2.01152 0.475098M10.7794 9.96525L14.8375 8.94895M0.418701 6.71273C2.07678 6.33462 5.04832 6.35055 7.24385 8.33044C9.43937 10.3103 11.4101 16.8489 8.13198 21.1372C8.13198 21.1372 6.58933 23.2814 4.46817 24.0611C2.89854 24.8044 2.89854 26.4002 2.89854 26.4002V28.9343H1.00283M0.804365 6.32287L0.997197 24.8408M2.73269 8.27213C5.818 8.46705 7.16782 10.5463 7.16782 12.1706" stroke="white"/>
<path d="M29.6551 10.7329V12.3149H27.0511V20.5049H25.0911V12.3149H22.4871V10.7329H29.6551ZM34.5291 20.6309C33.7825 20.6309 33.1105 20.4675 32.5131 20.1409C31.9158 19.8049 31.4445 19.3335 31.0991 18.7269C30.7631 18.1202 30.5951 17.4202 30.5951 16.6269C30.5951 15.8335 30.7678 15.1335 31.1131 14.5269C31.4678 13.9202 31.9485 13.4535 32.5551 13.1269C33.1618 12.7909 33.8385 12.6229 34.5851 12.6229C35.3318 12.6229 36.0085 12.7909 36.6151 13.1269C37.2218 13.4535 37.6978 13.9202 38.0431 14.5269C38.3978 15.1335 38.5751 15.8335 38.5751 16.6269C38.5751 17.4202 38.3931 18.1202 38.0291 18.7269C37.6745 19.3335 37.1891 19.8049 36.5731 20.1409C35.9665 20.4675 35.2851 20.6309 34.5291 20.6309ZM34.5291 18.9229C34.8838 18.9229 35.2151 18.8389 35.5231 18.6709C35.8405 18.4935 36.0925 18.2322 36.2791 17.8869C36.4658 17.5415 36.5591 17.1215 36.5591 16.6269C36.5591 15.8895 36.3631 15.3249 35.9711 14.9329C35.5885 14.5315 35.1171 14.3309 34.5571 14.3309C33.9971 14.3309 33.5258 14.5315 33.1431 14.9329C32.7698 15.3249 32.5831 15.8895 32.5831 16.6269C32.5831 17.3642 32.7651 17.9335 33.1291 18.3349C33.5025 18.7269 33.9691 18.9229 34.5291 18.9229ZM43.4289 10.7329C44.4555 10.7329 45.3562 10.9335 46.1309 11.3349C46.9149 11.7362 47.5169 12.3102 47.9369 13.0569C48.3662 13.7942 48.5809 14.6529 48.5809 15.6329C48.5809 16.6129 48.3662 17.4715 47.9369 18.2089C47.5169 18.9369 46.9149 19.5015 46.1309 19.9029C45.3562 20.3042 44.4555 20.5049 43.4289 20.5049H40.0129V10.7329H43.4289ZM43.3589 18.8389C44.3855 18.8389 45.1789 18.5589 45.7389 17.9989C46.2989 17.4389 46.5789 16.6502 46.5789 15.6329C46.5789 14.6155 46.2989 13.8222 45.7389 13.2529C45.1789 12.6742 44.3855 12.3849 43.3589 12.3849H41.9729V18.8389H43.3589ZM53.492 20.6309C52.7454 20.6309 52.0734 20.4675 51.476 20.1409C50.8787 19.8049 50.4074 19.3335 50.062 18.7269C49.726 18.1202 49.558 17.4202 49.558 16.6269C49.558 15.8335 49.7307 15.1335 50.076 14.5269C50.4307 13.9202 50.9114 13.4535 51.518 13.1269C52.1247 12.7909 52.8014 12.6229 53.548 12.6229C54.2947 12.6229 54.9714 12.7909 55.578 13.1269C56.1847 13.4535 56.6607 13.9202 57.006 14.5269C57.3607 15.1335 57.538 15.8335 57.538 16.6269C57.538 17.4202 57.356 18.1202 56.992 18.7269C56.6374 19.3335 56.152 19.8049 55.536 20.1409C54.9294 20.4675 54.248 20.6309 53.492 20.6309ZM53.492 18.9229C53.8467 18.9229 54.178 18.8389 54.486 18.6709C54.8034 18.4935 55.0554 18.2322 55.242 17.8869C55.4287 17.5415 55.522 17.1215 55.522 16.6269C55.522 15.8895 55.326 15.3249 54.934 14.9329C54.5514 14.5315 54.08 14.3309 53.52 14.3309C52.96 14.3309 52.4887 14.5315 52.106 14.9329C51.7327 15.3249 51.546 15.8895 51.546 16.6269C51.546 17.3642 51.728 17.9335 52.092 18.3349C52.4654 18.7269 52.932 18.9229 53.492 18.9229ZM67.8557 15.4929C68.4064 15.5955 68.859 15.8709 69.2137 16.3189C69.5684 16.7669 69.7457 17.2802 69.7457 17.8589C69.7457 18.3815 69.615 18.8435 69.3537 19.2449C69.1017 19.6369 68.733 19.9449 68.2477 20.1689C67.7624 20.3929 67.1884 20.5049 66.5257 20.5049H62.3117V10.7329H66.3437C67.0064 10.7329 67.5757 10.8402 68.0517 11.0549C68.537 11.2695 68.901 11.5682 69.1437 11.9509C69.3957 12.3335 69.5217 12.7675 69.5217 13.2529C69.5217 13.8222 69.3677 14.2982 69.0597 14.6809C68.761 15.0635 68.3597 15.3342 67.8557 15.4929ZM64.2717 14.7649H66.0637C66.5304 14.7649 66.8897 14.6622 67.1417 14.4569C67.3937 14.2422 67.5197 13.9389 67.5197 13.5469C67.5197 13.1549 67.3937 12.8515 67.1417 12.6369C66.8897 12.4222 66.5304 12.3149 66.0637 12.3149H64.2717V14.7649ZM66.2457 18.9089C66.7217 18.9089 67.0904 18.7969 67.3517 18.5729C67.6224 18.3489 67.7577 18.0315 67.7577 17.6209C67.7577 17.2009 67.6177 16.8742 67.3377 16.6409C67.0577 16.3982 66.6797 16.2769 66.2037 16.2769H64.2717V18.9089H66.2457ZM70.8038 16.5989C70.8038 15.8149 70.9578 15.1195 71.2658 14.5129C71.5831 13.9062 72.0078 13.4395 72.5398 13.1129C73.0811 12.7862 73.6831 12.6229 74.3458 12.6229C74.9245 12.6229 75.4285 12.7395 75.8578 12.9729C76.2965 13.2062 76.6465 13.5002 76.9078 13.8549V12.7489H78.8818V20.5049H76.9078V19.3709C76.6558 19.7349 76.3058 20.0382 75.8578 20.2809C75.4191 20.5142 74.9105 20.6309 74.3318 20.6309C73.6785 20.6309 73.0811 20.4629 72.5398 20.1269C72.0078 19.7909 71.5831 19.3195 71.2658 18.7129C70.9578 18.0969 70.8038 17.3922 70.8038 16.5989ZM76.9078 16.6269C76.9078 16.1509 76.8145 15.7449 76.6278 15.4089C76.4411 15.0635 76.1891 14.8022 75.8718 14.6249C75.5545 14.4382 75.2138 14.3449 74.8498 14.3449C74.4858 14.3449 74.1498 14.4335 73.8418 14.6109C73.5338 14.7882 73.2818 15.0495 73.0858 15.3949C72.8991 15.7309 72.8058 16.1322 72.8058 16.5989C72.8058 17.0655 72.8991 17.4762 73.0858 17.8309C73.2818 18.1762 73.5338 18.4422 73.8418 18.6289C74.1591 18.8155 74.4951 18.9089 74.8498 18.9089C75.2138 18.9089 75.5545 18.8202 75.8718 18.6429C76.1891 18.4562 76.4411 18.1949 76.6278 17.8589C76.8145 17.5135 76.9078 17.1029 76.9078 16.6269ZM85.0941 12.6369C86.0181 12.6369 86.7647 12.9309 87.3341 13.5189C87.9034 14.0975 88.1881 14.9095 88.1881 15.9549V20.5049H86.2281V16.2209C86.2281 15.6049 86.0741 15.1335 85.7661 14.8069C85.4581 14.4709 85.0381 14.3029 84.5061 14.3029C83.9647 14.3029 83.5354 14.4709 83.2181 14.8069C82.9101 15.1335 82.7561 15.6049 82.7561 16.2209V20.5049H80.7961V12.7489H82.7561V13.7149C83.0174 13.3789 83.3487 13.1175 83.7501 12.9309C84.1607 12.7349 84.6087 12.6369 85.0941 12.6369ZM94.6439 20.5049L92.0119 17.2009V20.5049H90.0519V10.1449H92.0119V16.0389L94.6159 12.7489H97.1639L93.7479 16.6409L97.1919 20.5049H94.6439Z" fill="white"/>
</svg>
